<svg width="195" height="80" viewBox="0 0 195 80" fill="none" xmlns="http://www.w3.org/2000/svg">
<rect width="195" height="54.321" rx="27.1605" fill="url(#paint0_linear_258_216)"/>
<path d="M81.2615 16.6162V39.8889H76.4888L67.2275 26.4571H67.0797V39.8889H61.4547V16.6162H66.2956L75.4547 30.0253H75.6479V16.6162H81.2615ZM93.4007 39.8889H84.7985V16.6162H93.3894C95.7606 16.6162 97.8023 17.0821 99.5144 18.0139C101.234 18.9381 102.56 20.2715 103.492 22.0139C104.423 23.7487 104.889 25.8245 104.889 28.2412C104.889 30.6654 104.423 32.7487 103.492 34.4912C102.567 36.2336 101.245 37.5707 99.5257 38.5025C97.806 39.4268 95.7644 39.8889 93.4007 39.8889ZM90.4235 35.0934H93.1848C94.4879 35.0934 95.5901 34.8737 96.4917 34.4343C97.4007 33.9874 98.0864 33.2639 98.5485 32.2639C99.0182 31.2563 99.253 29.9154 99.253 28.2412C99.253 26.5669 99.0182 25.2336 98.5485 24.2412C98.0788 23.2412 97.3856 22.5215 96.4689 22.0821C95.5598 21.6351 94.4386 21.4116 93.1053 21.4116H90.4235V35.0934ZM108.173 39.8889V16.6162H113.798V35.3207H123.48V39.8889H108.173ZM132.017 16.6162V39.8889H126.392V16.6162H132.017ZM155.355 16.6162V39.8889H150.583L141.321 26.4571H141.173V39.8889H135.548V16.6162H140.389L149.548 30.0253H149.742V16.6162H155.355ZM158.892 39.8889V16.6162H164.517V26.4571H164.824L172.517 16.6162H179.142L170.892 27.0025L179.29 39.8889H172.563L166.767 30.7412L164.517 33.5821V39.8889H158.892Z" fill="white"/>
<path d="M22.6549 39.8889V16.6162H28.2799V26.4571H28.5867L36.2799 16.6162H42.9049L34.6549 27.0025L43.0526 39.8889H36.3254L30.5299 30.7412L28.2799 33.5821V39.8889H22.6549Z" fill="white"/>
<rect x="48.75" y="16.7901" width="4.97449" height="22.716" rx="2.48724" fill="white"/>
<path d="M53.7246 9.60343C53.7246 7.84514 55.15 6.41975 56.9083 6.41975H57.5356C59.8266 6.41975 61.6838 8.27694 61.6838 10.5679C61.6838 12.0952 60.4457 13.3333 58.9184 13.3333H53.7246V9.60343Z" fill="white"/>
<path d="M58.8212 77.321H54.2871L60.1763 59.8664H65.7928L71.682 77.321H67.1479L63.0485 64.2642H62.9121L58.8212 77.321ZM58.2161 70.4517H67.6934V73.6562H58.2161V70.4517ZM80.013 77.321H73.5613V59.8664H80.0044C81.7828 59.8664 83.3141 60.2159 84.5982 60.9147C85.888 61.6079 86.8823 62.6079 87.5811 63.9147C88.28 65.2159 88.6294 66.7727 88.6294 68.5852C88.6294 70.4034 88.28 71.9659 87.5811 73.2727C86.888 74.5795 85.8965 75.5824 84.6067 76.2812C83.3169 76.9744 81.7857 77.321 80.013 77.321ZM77.78 73.7244H79.851C80.8283 73.7244 81.655 73.5596 82.3311 73.2301C83.013 72.8949 83.5272 72.3522 83.8738 71.6022C84.226 70.8466 84.4022 69.8409 84.4022 68.5852C84.4022 67.3295 84.226 66.3295 83.8738 65.5852C83.5215 64.8352 83.0016 64.2954 82.3141 63.9659C81.6323 63.6306 80.7914 63.463 79.7914 63.463H77.78V73.7244ZM91.0925 59.8664H96.3169L100.749 70.6733H100.953L105.385 59.8664H110.61V77.321H106.502V66.5994H106.357L102.164 77.2102H99.5385L95.3453 66.5397H95.2005V77.321H91.0925V59.8664ZM117.46 59.8664V77.321H113.241V59.8664H117.46ZM134.963 59.8664V77.321H131.384L124.438 67.2471H124.327V77.321H120.108V59.8664H123.739L130.608 69.9233H130.753V59.8664H134.963Z" fill="black"/>
<defs>
<linearGradient id="paint0_linear_258_216" x1="195" y1="26.6667" x2="-8.07538e-07" y2="26.6667" gradientUnits="userSpaceOnUse">
<stop stop-color="#7598C1"/>
<stop offset="0.557692" stop-color="#607895"/>
<stop offset="1" stop-color="#3E526A"/>
</linearGradient>
</defs>
</svg>
