<svg width="196" height="91" viewBox="0 0 196 91" fill="none" xmlns="http://www.w3.org/2000/svg">
<rect width="196" height="55" rx="27.5" fill="url(#paint0_linear_1_450)"/>
<path d="M45.7955 84H39.75L47.6023 60.7273H55.0909L62.9432 84H56.8977L51.4318 66.5909H51.25L45.7955 84ZM44.9886 74.8409H57.625V79.1136H44.9886V74.8409ZM74.0511 84H65.4489V60.7273H74.0398C76.411 60.7273 78.4527 61.1932 80.1648 62.125C81.8845 63.0492 83.2102 64.3826 84.142 66.125C85.0739 67.8598 85.5398 69.9356 85.5398 72.3523C85.5398 74.7765 85.0739 76.8598 84.142 78.6023C83.2178 80.3447 81.8958 81.6818 80.1761 82.6136C78.4564 83.5379 76.4148 84 74.0511 84ZM71.0739 79.2045H73.8352C75.1383 79.2045 76.2405 78.9848 77.142 78.5455C78.0511 78.0985 78.7367 77.375 79.1989 76.375C79.6686 75.3674 79.9034 74.0265 79.9034 72.3523C79.9034 70.678 79.6686 69.3447 79.1989 68.3523C78.7292 67.3523 78.036 66.6326 77.1193 66.1932C76.2102 65.7462 75.089 65.5227 73.7557 65.5227H71.0739V79.2045ZM88.8239 60.7273H95.7898L101.699 75.1364H101.972L107.881 60.7273H114.847V84H109.369V69.7045H109.176L103.585 83.8523H100.085L94.4943 69.625H94.3011V84H88.8239V60.7273ZM123.98 60.7273V84H118.355V60.7273H123.98ZM147.318 60.7273V84H142.545L133.284 70.5682H133.136V84H127.511V60.7273H132.352L141.511 74.1364H141.705V60.7273H147.318Z" fill="black"/>
<path d="M79.5682 16.7273V40H74.7955L65.5341 26.5682H65.3864V40H59.7614V16.7273H64.6023L73.7614 30.1364H73.9545V16.7273H79.5682ZM91.7074 40H83.1051V16.7273H91.696C94.0672 16.7273 96.1089 17.1932 97.821 18.125C99.5407 19.0492 100.866 20.3826 101.798 22.125C102.73 23.8598 103.196 25.9356 103.196 28.3523C103.196 30.7765 102.73 32.8598 101.798 34.6023C100.874 36.3447 99.5521 37.6818 97.8324 38.6136C96.1127 39.5379 94.071 40 91.7074 40ZM88.7301 35.2045H91.4915C92.7945 35.2045 93.8968 34.9848 94.7983 34.5455C95.7074 34.0985 96.393 33.375 96.8551 32.375C97.3248 31.3674 97.5597 30.0265 97.5597 28.3523C97.5597 26.678 97.3248 25.3447 96.8551 24.3523C96.3854 23.3523 95.6922 22.6326 94.7756 22.1932C93.8665 21.7462 92.7453 21.5227 91.4119 21.5227H88.7301V35.2045ZM106.48 40V16.7273H112.105V35.4318H121.787V40H106.48ZM130.324 16.7273V40H124.699V16.7273H130.324ZM153.662 16.7273V40H148.889L139.628 26.5682H139.48V40H133.855V16.7273H138.696L147.855 30.1364H148.048V16.7273H153.662ZM157.199 40V16.7273H162.824V26.5682H163.131L170.824 16.7273H177.449L169.199 27.1136L177.597 40H170.869L165.074 30.8523L162.824 33.6932V40H157.199Z" fill="white"/>
<path d="M20.7614 40V16.7273H26.3864V26.5682H26.6932L34.3864 16.7273H41.0114L32.7614 27.1136L41.1591 40H34.4318L28.6364 30.8523L26.3864 33.6932V40H20.7614Z" fill="white"/>
<rect x="47" y="17" width="5" height="23" rx="2.5" fill="white"/>
<path d="M52 9.7C52 7.93269 53.4327 6.5 55.2 6.5H55.8C58.1196 6.5 60 8.3804 60 10.7C60 12.2464 58.7464 13.5 57.2 13.5H52V9.7Z" fill="white"/>
<defs>
<linearGradient id="paint0_linear_1_450" x1="0" y1="27.5" x2="196" y2="27.5" gradientUnits="userSpaceOnUse">
<stop stop-color="#89A7CA"/>
<stop offset="0.966346" stop-color="#3D5169"/>
</linearGradient>
</defs>
</svg>
