<svg width="195" height="80" viewBox="0 0 195 80" fill="none" xmlns="http://www.w3.org/2000/svg">
<rect y="13" width="195" height="55" rx="27.5" fill="url(#paint0_linear_118_332)"/>
<path d="M81.2625 29.7273V53H76.4898L67.2284 39.5682H67.0807V53H61.4557V29.7273H66.2966L75.4557 43.1364H75.6489V29.7273H81.2625ZM93.4017 53H84.7994V29.7273H93.3904C95.7616 29.7273 97.8032 30.1932 99.5154 31.125C101.235 32.0492 102.561 33.3826 103.493 35.125C104.424 36.8598 104.89 38.9356 104.89 41.3523C104.89 43.7765 104.424 45.8598 103.493 47.6023C102.568 49.3447 101.246 50.6818 99.5267 51.6136C97.807 52.5379 95.7654 53 93.4017 53ZM90.4244 48.2045H93.1858C94.4888 48.2045 95.5911 47.9848 96.4926 47.5455C97.4017 47.0985 98.0873 46.375 98.5494 45.375C99.0191 44.3674 99.254 43.0265 99.254 41.3523C99.254 39.678 99.0191 38.3447 98.5494 37.3523C98.0798 36.3523 97.3866 35.6326 96.4699 35.1932C95.5608 34.7462 94.4396 34.5227 93.1063 34.5227H90.4244V48.2045ZM108.174 53V29.7273H113.799V48.4318H123.481V53H108.174ZM132.018 29.7273V53H126.393V29.7273H132.018ZM155.356 29.7273V53H150.584L141.322 39.5682H141.174V53H135.549V29.7273H140.39L149.549 43.1364H149.743V29.7273H155.356ZM158.893 53V29.7273H164.518V39.5682H164.825L172.518 29.7273H179.143L170.893 40.1136L179.291 53H172.564L166.768 43.8523L164.518 46.6932V53H158.893Z" fill="white"/>
<path d="M22.6539 53V29.7273H28.2789V39.5682H28.5858L36.2789 29.7273H42.9039L34.6539 40.1136L43.0517 53H36.3244L30.5289 43.8523L28.2789 46.6932V53H22.6539Z" fill="white"/>
<rect x="48.75" y="30" width="4.97449" height="23" rx="2.48724" fill="white"/>
<path d="M53.7246 22.6837C53.7246 20.9254 55.15 19.5 56.9083 19.5H57.4838C59.8034 19.5 61.6838 21.3804 61.6838 23.7C61.6838 25.2464 60.4302 26.5 58.8838 26.5H53.7246V22.6837Z" fill="white"/>
<defs>
<linearGradient id="paint0_linear_118_332" x1="0" y1="40.5" x2="195" y2="40.5" gradientUnits="userSpaceOnUse">
<stop stop-color="#41CBEE"/>
<stop offset="0.600962" stop-color="#34A3BF"/>
<stop offset="1" stop-color="#257488"/>
</linearGradient>
</defs>
</svg>
