<svg width="196" height="55" viewBox="0 0 196 55" fill="none" xmlns="http://www.w3.org/2000/svg">
<rect width="196" height="55" rx="27.5" fill="url(#paint0_linear_34_17)"/>
<path d="M81.5682 16.7273V40H76.7955L67.5341 26.5682H67.3864V40H61.7614V16.7273H66.6023L75.7614 30.1364H75.9545V16.7273H81.5682ZM93.7074 40H85.1051V16.7273H93.696C96.0672 16.7273 98.1089 17.1932 99.821 18.125C101.541 19.0492 102.866 20.3826 103.798 22.125C104.73 23.8598 105.196 25.9356 105.196 28.3523C105.196 30.7765 104.73 32.8598 103.798 34.6023C102.874 36.3447 101.552 37.6818 99.8324 38.6136C98.1127 39.5379 96.071 40 93.7074 40ZM90.7301 35.2045H93.4915C94.7945 35.2045 95.8968 34.9848 96.7983 34.5455C97.7074 34.0985 98.393 33.375 98.8551 32.375C99.3248 31.3674 99.5597 30.0265 99.5597 28.3523C99.5597 26.678 99.3248 25.3447 98.8551 24.3523C98.3854 23.3523 97.6922 22.6326 96.7756 22.1932C95.8665 21.7462 94.7453 21.5227 93.4119 21.5227H90.7301V35.2045ZM108.48 40V16.7273H114.105V35.4318H123.787V40H108.48ZM132.324 16.7273V40H126.699V16.7273H132.324ZM155.662 16.7273V40H150.889L141.628 26.5682H141.48V40H135.855V16.7273H140.696L149.855 30.1364H150.048V16.7273H155.662ZM159.199 40V16.7273H164.824V26.5682H165.131L172.824 16.7273H179.449L171.199 27.1136L179.597 40H172.869L167.074 30.8523L164.824 33.6932V40H159.199Z" fill="white"/>
<path d="M22.7614 40V16.7273H28.3864V26.5682H28.6932L36.3864 16.7273H43.0114L34.7614 27.1136L43.1591 40H36.4318L30.6364 30.8523L28.3864 33.6932V40H22.7614Z" fill="white"/>
<rect x="49" y="17" width="5" height="23" rx="2.5" fill="white"/>
<path d="M54 9.7C54 7.93269 55.4327 6.5 57.2 6.5H57.8C60.1196 6.5 62 8.3804 62 10.7C62 12.2464 60.7464 13.5 59.2 13.5H54V9.7Z" fill="white"/>
<defs>
<linearGradient id="paint0_linear_34_17" x1="0" y1="27.5" x2="196" y2="27.5" gradientUnits="userSpaceOnUse">
<stop offset="0.225962" stop-color="#41CBEE"/>
<stop offset="1" stop-color="#257488"/>
</linearGradient>
</defs>
</svg>
