<svg width="2007" height="1134" viewBox="0 0 2007 1134" fill="none" xmlns="http://www.w3.org/2000/svg">
<g clip-path="url(#clip0_296_307)">
<rect width="2007" height="1134" fill="white"/>
<path d="M1088.38 2.93922C1452.95 -233.174 2007 2.93938 2007 2.93938L2007 1132.77C2007 1132.77 655.175 1560.79 1001.87 1132.77C1348.56 704.75 723.812 239.053 1088.38 2.93922Z" fill="#48C9E9"/>
<path d="M920.452 619.083C767.452 803.197 1014.47 1004.66 464.82 1004.66C-84.8268 1004.66 176.798 654.098 108.412 522.134C40.0253 390.169 67.9012 257.525 347.81 187.259C627.719 116.993 1073.45 434.968 920.452 619.083Z" fill="#48C9E9"/>
<path d="M969.541 350.741C969.541 405.512 911.13 429.456 862.53 429.456C813.931 429.456 757.73 374.382 757.73 319.61C757.73 264.838 828.081 232 876.681 232C925.28 232 969.541 295.969 969.541 350.741Z" fill="#79E4FF" fill-opacity="0.33"/>
<path d="M669 202.365C669 236.206 633.149 251 603.321 251C573.494 251 539 216.972 539 183.131C539 149.29 582.178 129 612.006 129C641.834 129 669 168.524 669 202.365Z" fill="#79E4FF" fill-opacity="0.33"/>
<path d="M813 116.297C813 136.269 795.902 145 781.676 145C767.451 145 751 124.918 751 104.946C751 84.9741 771.593 73 785.818 73C800.044 73 813 96.3255 813 116.297Z" fill="#79E4FF" fill-opacity="0.33"/>
<path d="M931.41 664.418C931.41 677.987 917.508 683.919 905.942 683.919C894.376 683.919 881 670.275 881 656.705C881 643.136 897.743 635 909.31 635C920.876 635 931.41 650.848 931.41 664.418Z" fill="#79E4FF" fill-opacity="0.33"/>
<path d="M134.41 1034.42C134.41 1047.99 120.508 1053.92 108.942 1053.92C97.3756 1053.92 84 1040.27 84 1026.71C84 1013.14 100.743 1005 112.31 1005C123.876 1005 134.41 1020.85 134.41 1034.42Z" fill="#79E4FF" fill-opacity="0.33"/>
<path d="M945 987.824C945 1033.87 898.946 1054 860.628 1054C822.311 1054 778 1007.7 778 961.653C778 915.607 833.467 888 871.785 888C910.102 888 945 941.778 945 987.824Z" fill="#79E4FF" fill-opacity="0.33"/>
<path d="M189.505 270.578C189.505 302.651 158.531 316.672 132.76 316.672C106.989 316.672 77.1875 284.422 77.1875 252.348C77.1875 220.275 114.493 201.045 140.263 201.045C166.034 201.045 189.505 238.504 189.505 270.578Z" fill="#79E4FF" fill-opacity="0.33"/>
<path d="M189.505 544.526C189.505 576.599 158.531 590.621 132.76 590.621C106.989 590.621 77.1875 558.37 77.1875 526.296C77.1875 494.223 114.493 474.993 140.263 474.993C166.034 474.993 189.505 512.452 189.505 544.526Z" fill="#79E4FF" fill-opacity="0.33"/>
<path d="M197.465 446.218C197.465 455.1 187.953 458.983 180.039 458.983C172.125 458.983 162.974 450.052 162.974 441.17C162.974 432.288 174.43 426.963 182.343 426.963C190.257 426.963 197.465 437.336 197.465 446.218Z" fill="#79E4FF" fill-opacity="0.33"/>
<path d="M291.21 148.255C291.21 157.137 281.698 161.02 273.784 161.02C265.87 161.02 256.719 152.089 256.719 143.207C256.719 134.325 268.175 129 276.089 129C284.002 129 291.21 139.373 291.21 148.255Z" fill="#79E4FF" fill-opacity="0.33"/>
<path d="M133.788 376.842C133.788 385.724 124.276 389.607 116.362 389.607C108.449 389.607 99.2969 380.676 99.2969 371.794C99.2969 362.912 110.753 357.587 118.667 357.587C126.58 357.587 133.788 367.96 133.788 376.842Z" fill="#79E4FF" fill-opacity="0.33"/>
<path d="M751 1021.24C751 1028.73 743.003 1032 736.349 1032C729.695 1032 722 1024.47 722 1016.98C722 1009.49 731.632 1005 738.286 1005C744.94 1005 751 1013.75 751 1021.24Z" fill="#79E4FF" fill-opacity="0.33"/>
<path d="M1010.41 917.418C1010.41 930.987 996.508 936.919 984.942 936.919C973.376 936.919 960 923.275 960 909.705C960 896.136 976.743 888 988.31 888C999.876 888 1010.41 903.848 1010.41 917.418Z" fill="#79E4FF" fill-opacity="0.33"/>
</g>
<defs>
<clipPath id="clip0_296_307">
<rect width="2007" height="1134" fill="white"/>
</clipPath>
</defs>
</svg>
