<svg width="604" height="1202" viewBox="0 0 604 1202" fill="none" xmlns="http://www.w3.org/2000/svg">
<g clip-path="url(#clip0_298_206)">
<rect width="604" height="1202" fill="white"/>
<rect x="1" y="-0.000244141" width="603" height="1202" fill="#99EBFF"/>
<ellipse cx="187.064" cy="188.7" rx="187.064" ry="188.7" transform="matrix(-0.799766 -0.600311 0.58547 -0.810694 138.144 530.549)" fill="url(#paint0_linear_298_206)"/>
<path d="M1 391C1 324.726 54.7258 271 121 271H484C550.274 271 604 324.726 604 391V1202H1V391Z" fill="white"/>
<path d="M604 1077.57V1202H0.488854L0.488865 961.253C0.424675 960.835 0.367977 960.424 0.318115 960.022C-0.576259 952.799 0.488876 945.202 0.488866 937.925L0.488865 961.253C3.12211 978.409 18.3632 1008.19 91.4861 1012.73C195.154 1019.17 286.291 930.695 339.225 921.2C447.764 901.729 266.704 1017.47 295.908 1033.77C310.494 1041.91 387.37 1013.84 460.672 983.693C528.186 955.93 604 1004.57 604 1077.57Z" fill="#99EBFF"/>
<path d="M663 843.77C663 878.721 622.186 894 588.228 894C554.27 894 515 858.856 515 823.905C515 788.955 564.157 768 598.115 768C632.073 768 663 808.82 663 843.77Z" fill="#79E4FF" fill-opacity="0.33"/>
<path d="M604 194.77C604 229.721 563.186 245 529.228 245C495.27 245 456 209.856 456 174.905C456 139.955 505.157 119 539.115 119C573.073 119 604 159.82 604 194.77Z" fill="#DAF8FF" fill-opacity="0.38"/>
<path d="M99 613.77C99 648.721 58.1856 664 24.2275 664C-9.73047 664 -49 628.856 -49 593.905C-49 558.955 0.156787 538 34.1148 538C68.0728 538 99 578.82 99 613.77Z" fill="#79E4FF" fill-opacity="0.33"/>
<path d="M561 395.662C561 408.422 548.314 414 537.76 414C527.205 414 515 401.17 515 388.41C515 375.65 530.278 368 540.833 368C551.387 368 561 382.902 561 395.662Z" fill="#79E4FF" fill-opacity="0.33"/>
</g>
<rect x="0.5" y="0.5" width="603" height="1201" stroke="black"/>
<defs>
<linearGradient id="paint0_linear_298_206" x1="187.064" y1="0" x2="187.064" y2="377.399" gradientUnits="userSpaceOnUse">
<stop stop-color="#48C9E9" stop-opacity="0.8"/>
<stop offset="1" stop-color="white"/>
</linearGradient>
<clipPath id="clip0_298_206">
<rect width="604" height="1202" fill="white"/>
</clipPath>
</defs>
</svg>
